<?xml version="1.0" encoding="utf-8"?>
<!-- Generator: Adobe Illustrator 25.4.1, SVG Export Plug-In . SVG Version: 6.00 Build 0)  -->
<svg version="1.0" id="katman_1" xmlns="http://www.w3.org/2000/svg" xmlns:xlink="http://www.w3.org/1999/xlink" x="0px" y="0px"
	 viewBox="0 0 800 600" style="enable-background:new 0 0 800 600;" xml:space="preserve">
<style type="text/css">
	.st0{fill:#010202;}
	.st1{fill:#FFFFFF;}
</style>
<symbol  id="jetbrains-simple" viewBox="-350 -350 700 700">
	<path class="st0" d="M-350-350h700v700h-700V-350z"/>
	<path class="st1" d="M-289.6,218.8h262.5v43.8h-262.5V218.8z"/>
	<path class="st1" d="M-292.6-165.7l20.4-19.2c5.5,6.7,10.8,10.6,17.9,10.6c7.8,0,12.9-5.4,12.9-16v-72.2h31.5v72.4
		c0,14.3-3.6,24.4-11.2,32.1c-7.5,7.5-18.3,11.6-31.3,11.6C-272.4-146.5-284.4-154.8-292.6-165.7L-292.6-165.7z"/>
	<path class="st1" d="M-202.6-262.5h91.8v26.7h-60.5v17.4h54.8v24.9h-54.8v18.1h61.3v26.9h-92.6L-202.6-262.5z"/>
	<path class="st1" d="M-69.5-234.8h-34.1v-27.7h99.9v27.7h-34.2v86.4h-31.6L-69.5-234.8z"/>
	<path class="st1" d="M-210.3-67.3c10.1-4.4,17.6-12.2,17.6-25.4v-0.3c0.2-6.9-2.5-13.6-7.3-18.6c-6.7-6.5-16.8-10.1-31.1-10.1
		h-58.5V-7.6h58.8c27.2,0,43.2-11.9,43.2-31.5v-0.3C-187.6-54.9-196.4-62.7-210.3-67.3L-210.3-67.3z M-258.8-96.3h20.7
		c9.3,0,14.3,3.4,14.3,9.8v0.3c0,6.7-5.5,9.9-15.2,9.9h-19.9L-258.8-96.3L-258.8-96.3z M-219.2-43.5c0,6.7-5.4,10.4-15.2,10.4h-24.4
		v-21h24.1c10.6,0,15.5,4.1,15.5,10.3V-43.5L-219.2-43.5z"/>
	<path class="st1" d="M-14.2-122.6h-30.5L-87.3-21.4l-17.8-26.1c14.2-6,23.5-17.6,23.5-35.2V-83c0-11.2-3.4-19.9-10.1-26.6
		c-7.7-7.7-19.7-12.2-37.2-12.2h-54V-7.7h31.6v-34.5h14l23,34.6H-60l8.1-20.5h44.2L0.5-7.6h33.9L-14.2-122.6z M-113.3-80.5
		c0,8.3-6.4,13.5-17,13.5h-21v-27.5h20.9c10.4,0,17.1,4.6,17.1,13.7L-113.3-80.5L-113.3-80.5z M-42.6-52.8l12.9-32.3L-17-52.8H-42.6
		z"/>
	<path class="st1" d="M38.1-121.7h31.6V-7.6H38.1V-121.7z"/>
	<path class="st1" d="M77.6-121.7h29.5L154-61.4v-60.3h31.3V-7.6h-27.5l-48.9-62.6v62.6H77.6L77.6-121.7z"/>
	<path class="st1" d="M187.3-24.6l17.6-21c11.4,9,23.8,13.7,37,13.7c8.6,0,13.2-2.9,13.2-7.8v-0.3c0-4.9-3.7-7.3-19.4-11.1
		c-24.3-5.5-43-12.4-43-35.7v-0.3c0-21.2,16.8-36.5,44.2-36.5c19.4,0,34.6,5.2,46.9,15.2L268-86.2c-10.4-7.5-21.8-11.2-31.9-11.2
		c-7.7,0-11.4,3.1-11.4,7.3v0.3c0,5.2,3.9,7.5,19.9,11.1c26.1,5.7,42.4,14.2,42.4,35.5v0.3c0,23.3-18.4,37.2-46.1,37.2
		C220.5-5.7,201.5-12,187.3-24.6L187.3-24.6z"/>
</symbol>
<use xlink:href="#jetbrains-simple"  width="700" height="700" x="-350" y="-350" transform="matrix(0.6855 0 0 0.6855 399.9738 299.7225)" style="overflow:visible;"/>
</svg>
